<?xml version="1.0" encoding="UTF-8"?>
<svg width="28px" height="28px" viewBox="0 0 28 28" version="1.1" xmlns="http://www.w3.org/2000/svg" xmlns:xlink="http://www.w3.org/1999/xlink">
    <title>chat-circle-text-fill</title>
    <g id="Page-1" stroke="none" stroke-width="1" fill="none" fill-rule="evenodd">
        <g id="chat-circle-text-fill" fill="#EA524F" fill-rule="nonzero">
            <path d="M14.0040898,3.34514798e-07 C9.08716711,-0.00107218192 4.53003947,2.57693544 1.9984387,6.79170424 C-0.533162082,11.006473 -0.66815747,16.240208 1.64279636,20.5798623 L0.114799403,25.1634854 C-0.14334685,25.9374991 0.0580713624,26.7909203 0.635060494,27.3678631 C1.21204963,27.9448059 2.06553926,28.146208 2.83961512,27.8880825 L7.42360598,26.3602081 C12.5671965,29.095768 18.8673759,28.360591 23.2427911,24.5142448 C27.6182063,20.6678985 29.1543756,14.5142866 27.0999745,9.06307771 C25.0455734,3.61186879 19.8299808,0.00239008999 14.0040898,3.34514798e-07 L14.0040898,3.34514798e-07 Z M18.3120988,17.2306541 L9.69608075,17.2306541 C9.10126883,17.2306541 8.61907849,16.7485024 8.61907849,16.1537383 C8.61907849,15.5589741 9.10126883,15.0768224 9.69608075,15.0768224 L18.3120988,15.0768224 C18.9069107,15.0768224 19.3891011,15.5589741 19.3891011,16.1537383 C19.3891011,16.7485024 18.9069107,17.2306541 18.3120988,17.2306541 Z M18.3120988,12.9229907 L9.69608075,12.9229907 C9.10126883,12.9229907 8.61907849,12.4408391 8.61907849,11.8460749 C8.61907849,11.2513107 9.10126883,10.7691591 9.69608075,10.7691591 L18.3120988,10.7691591 C18.9069107,10.7691591 19.3891011,11.2513107 19.3891011,11.8460749 C19.3891011,12.4408391 18.9069107,12.9229907 18.3120988,12.9229907 Z" id="Shape"></path>
        </g>
    </g>
</svg>